<svg width="24" height="24" viewBox="0 0 24 24" fill="none" xmlns="http://www.w3.org/2000/svg">
<path d="M7.99951 5H9.99951V7H7.99951V5Z" fill="currentColor"/>
<path d="M5.99951 7H7.99951V9H5.99951V7Z" fill="currentColor"/>
<path d="M3.99951 9H5.99951V11H3.99951V9Z" fill="currentColor"/>
<path d="M1.99951 11H3.99951V13H1.99951V11Z" fill="currentColor"/>
<path d="M3.99951 13H5.99951V15H3.99951V13Z" fill="currentColor"/>
<path d="M5.99951 15H7.99951V17H5.99951V15Z" fill="currentColor"/>
<path d="M7.99951 17H9.99951V19H7.99951V17Z" fill="currentColor"/>
<path d="M15.9995 5H13.9995V7H15.9995V5Z" fill="currentColor"/>
<path d="M17.9995 7H15.9995V9H17.9995V7Z" fill="currentColor"/>
<path d="M19.9995 9H17.9995V11H19.9995V9Z" fill="currentColor"/>
<path d="M21.9995 11H19.9995V13H21.9995V11Z" fill="currentColor"/>
<path d="M19.9995 13H17.9995V15H19.9995V13Z" fill="currentColor"/>
<path d="M17.9995 15H15.9995V17H17.9995V15Z" fill="currentColor"/>
<path d="M15.9995 17H13.9995V19H15.9995V17Z" fill="currentColor"/>
</svg>
